<?xml version="1.0" encoding="UTF-8" standalone="no"?>
<svg
   width="1258.661"
   height="503.02399"
   viewBox="0 0 1258.661 503.02399"
   fill="none"
   version="1.1"
   id="svg10"
   sodipodi:docname="eigenlayer.svg"
   inkscape:version="1.4 (e7c3feb100, 2024-10-09)"
   xmlns:inkscape="http://www.inkscape.org/namespaces/inkscape"
   xmlns:sodipodi="http://sodipodi.sourceforge.net/DTD/sodipodi-0.dtd"
   xmlns="http://www.w3.org/2000/svg"
   xmlns:svg="http://www.w3.org/2000/svg">
  <defs
     id="defs10" />
  <sodipodi:namedview
     id="namedview10"
     pagecolor="#ffffff"
     bordercolor="#000000"
     borderopacity="0.25"
     inkscape:showpageshadow="2"
     inkscape:pageopacity="0.0"
     inkscape:pagecheckerboard="0"
     inkscape:deskcolor="#d1d1d1"
     inkscape:zoom="0.335578"
     inkscape:cx="607.90636"
     inkscape:cy="813.52174"
     inkscape:window-width="1239"
     inkscape:window-height="1049"
     inkscape:window-x="0"
     inkscape:window-y="0"
     inkscape:window-maximized="1"
     inkscape:current-layer="svg10" />
  <path
     d="M 1.196,391.355 0,381.35 c 16.022,-6.39 18.833,-15.201 20.028,-32.822 1.195,-13.199 1.195,-30.82 1.195,-44.827 V 197.297 c 0,-14.006 0,-31.627 -1.195,-44.827 C 18.833,134.849 16.022,126.071 0,119.649 l 1.196,-10.005 c 15.634,1.194 26.423,1.194 36.437,1.194 h 73.682 c 16.409,0 28.846,0 44.448,-1.194 2.81,20.396 4.393,35.21 5.621,57.22 l -11.629,2.001 c -5.201,-14.814 -9.626,-23.204 -15.635,-29.627 -6.008,-6.422 -15.214,-9.617 -22.838,-10.811 -10.013,-1.614 -18.832,-2.001 -34.434,-2.001 -18.832,0 -21.223,3.195 -22.418,19.202 -1.195,12.393 -1.195,26.819 -1.195,41.213 v 51.217 c 13.632,0 41.67,-0.807 54.462,-2.001 18.025,-2.001 23.645,-8.391 29.654,-26.819 l 9.626,2.001 c -1.196,15.62 -1.196,24.399 -1.196,34.403 0,10.005 0,19.203 1.196,34.823 l -9.626,2.001 c -6.009,-18.396 -11.629,-24.399 -29.654,-26.819 -12.824,-1.614 -41.25,-2.001 -54.462,-2.001 v 54.025 c 0,14.006 0.807,35.629 1.195,43.633 0.808,19.622 7.623,23.204 25.648,23.204 18.025,0 31.657,-0.387 42.446,-2.001 14.019,-2.001 20.415,-7.616 26.423,-16.007 4.813,-7.617 8.819,-16.008 14.019,-30.821 l 10.822,2.001 c -2.003,24.011 -5.201,43.633 -9.626,64.417 -29.234,-1.614 -65.671,-2.001 -116.968,-2.001 -19.64,0 -30.429,0 -46.063,1.194 z"
     fill="#e1e1e1"
     id="path1" />
  <path
     d="m 227.298,266.111 c 5.621,-15.201 6.816,-22.817 6.816,-26.819 0,-2.389 -1.195,-3.615 -3.198,-3.615 -4.006,0 -12.017,6.39 -30.429,28.013 l -7.623,-6.81 c 22.837,-33.208 39.247,-48.409 52.459,-48.409 8.398,0 16.022,7.616 16.022,19.622 0,12.812 -6.396,30.401 -12.404,46.828 l -26.036,73.615 c -4.393,12.005 -5.201,15.2 -5.201,16.814 0,2.001 1.615,4.002 4.006,4.002 4.393,0 12.404,-4.389 32.044,-32.402 l 8.011,5.615 c -21.223,41.213 -39.668,52.411 -53.687,52.411 -9.206,0 -17.217,-8.003 -17.217,-18.395 0,-9.198 2.81,-18.008 12.404,-44.02 l 24.033,-66.418 z M 258.147,98.452 c 12.016,0 21.223,9.198 21.223,21.204 0,12.005 -9.207,21.203 -21.223,21.203 -12.017,0 -21.223,-9.198 -21.223,-21.203 0,-12.006 9.206,-21.204 21.223,-21.204 z"
     fill="#e1e1e1"
     id="path2" />
  <path
     d="m 408.948,237.708 c 9.626,10.812 13.211,24.399 13.211,39.212 0,39.212 -28.846,67.225 -64.088,67.225 -18.025,0 -31.236,-5.196 -42.865,-14.814 -12.404,9.618 -15.215,18.815 -15.215,28.013 0,11.619 9.207,19.203 27.231,20.009 l 48.454,1.614 c 38.86,1.194 57.66,24.398 57.66,54.412 0,36.017 -35.662,67.612 -91.319,67.612 -45.256,0 -68.094,-20.009 -68.094,-47.215 0,-18.815 9.206,-33.629 32.044,-49.216 -17.217,-6.003 -28.846,-19.203 -28.846,-38.018 0,-15.62 7.204,-31.627 27.651,-47.215 -9.206,-12.393 -13.631,-25.205 -13.631,-42.407 0,-37.63 30.041,-67.225 65.283,-67.225 23.225,0 29.233,8.004 52.071,8.004 10.014,0 24.033,-0.387 38.053,-1.613 l 3.198,6.809 -3.198,14.813 h -37.665 z m -40.443,171.66 c -18.025,0 -32.432,0 -48.874,-1.194 -14.019,13.2 -19.64,26.399 -19.64,38.825 0,17.201 14.827,31.627 48.454,31.627 46.063,0 62.893,-19.622 62.893,-38.405 0,-18.783 -12.824,-30.82 -42.865,-30.82 z M 322.054,274.5 c 0,35.209 13.632,53.637 36.049,53.637 20.836,0 33.66,-14.006 33.66,-49.216 0,-33.209 -14.02,-53.218 -36.05,-53.218 -19.64,0 -33.659,15.2 -33.659,48.829 z"
     fill="#e1e1e1"
     id="path3" />
  <path
     d="m 539.216,314.13 c 38.44,0 67.706,28.401 67.706,66.838 0,3.195 0,6.002 -0.807,9.197 H 482.752 c -0.808,4.809 -0.808,9.198 -0.808,15.201 0,41.213 24.841,69.225 56.885,69.225 25.648,0 41.25,-8.81 57.66,-32.402 l 9.626,6.003 c -12.017,30.014 -35.662,54.832 -71.292,54.832 -50.069,0 -83.308,-42.407 -83.308,-91.236 0,-55.638 38.052,-97.625 87.701,-97.625 z m 32.432,60.028 c -0.388,-27.206 -18.832,-42.019 -41.25,-42.019 -24.421,0 -40.055,18.395 -44.868,42.019 z"
     fill="#e1e1e1"
     id="path4" />
  <path
     d="m 773.861,420.18 c 0,12.393 0,26.399 0.81,38.824 1.19,16.395 3.62,22.817 18.41,28.82 l -1.2,9.198 c -14.01,-1.194 -22.83,-1.194 -32.04,-1.194 -9.21,0 -18.02,0 -32.043,1.194 l -1.195,-9.198 c 14.828,-6.003 16.828,-12.393 18.028,-28.82 1.19,-12.393 1.19,-26.399 1.19,-38.824 v -42.407 c 0,-22.397 -13.63,-37.63 -34.853,-37.63 -27.651,0 -44.868,18.815 -44.868,44.408 v 35.629 c 0,12.393 0,26.399 0.808,38.824 1.195,16.395 3.618,22.817 18.412,28.82 l -1.195,9.198 c -14.019,-1.194 -22.838,-1.194 -32.044,-1.194 -9.206,0 -18.025,0 -32.044,1.194 l -1.195,-9.198 c 14.826,-6.003 16.829,-12.393 18.024,-28.82 1.196,-12.393 1.196,-26.399 1.196,-38.824 v -10.005 c 0,-12.393 0,-25.205 -1.196,-37.63 -1.195,-16.395 -5.2,-20.009 -19.639,-22.817 v -8.391 c 18.412,-8.81 28.426,-15.201 42.445,-28.013 l 8.399,3.195 c -1.196,12.812 -2.003,23.624 -2.391,33.629 l 0.388,0.387 c 10.821,-20.397 29.653,-36.404 53.686,-36.404 19.637,0 36.047,9.198 45.677,24.818 5.2,9.198 8.4,19.202 8.4,35.21 v 46.021 z"
     fill="#e1e1e1"
     id="path5" />
  <path
     d="m 533.32,198.092 c 0,14.006 0.387,35.629 1.195,43.633 2.003,19.622 7.623,23.204 25.648,23.204 18.025,0 29.234,0 40.863,-2.001 14.407,-2.808 22.03,-9.198 28.038,-18.396 5.201,-7.616 9.626,-16.814 14.827,-32.402 l 11.629,2.001 c -2.003,25.625 -5.621,46.022 -10.014,68.419 -31.656,-1.614 -66.898,-2.001 -118.162,-2.001 -19.64,0 -30.429,0 -46.063,1.194 l -1.196,-10.004 c 16.022,-6.39 18.833,-15.201 20.028,-32.822 1.195,-13.2 1.195,-30.821 1.195,-44.827 V 87.654 c 0,-14.007 0,-31.628 -1.195,-44.828 -1.195,-17.621 -4.006,-26.399 -20.028,-32.821 L 481.281,0 c 15.634,1.194 26.423,1.194 35.662,1.194 10.013,0 20.835,0 36.437,-1.194 l 1.195,10.005 c -16.022,6.39 -18.832,15.2 -20.028,32.821 -1.195,13.2 -1.195,30.821 -1.195,44.828 v 110.438 z"
     fill="#e1e1e1"
     id="path6" />
  <path
     d="m 685.888,128.444 c 7.623,-14.006 27.651,-28.82 51.264,-28.82 19.639,0 34.859,6.81 44.449,20.817 6.4,9.197 12.02,25.205 12.02,43.213 v 38.405 c 0,12.393 0,24.011 0.8,36.404 0.81,13.199 7.21,23.204 20.03,29.207 l -5.2,16.007 c -27.65,-1.194 -38.05,-13.199 -41.67,-31.208 h -0.81 c -10.82,24.399 -28.42,34.403 -46.449,34.403 -25.648,0 -41.67,-16.814 -41.67,-38.017 0,-18.816 9.626,-30.014 25.229,-40.019 14.826,-9.617 41.25,-19.202 61.66,-24.398 v -19.622 c 0,-12.393 -3.19,-22.01 -8.39,-28.82 -6.01,-8.004 -16.41,-11.199 -25.232,-11.199 -13.632,0 -24.841,5.616 -38.44,16.395 l -7.623,-12.812 z m 79.693,70.033 c -8.4,2.807 -15.64,6.002 -23.23,9.197 -27.229,11.619 -35.24,23.624 -35.24,34.403 0,10.78 6.008,20.397 20.027,20.397 16.413,0 38.443,-14.394 38.443,-42.02 v -22.01 z"
     fill="#e1e1e1"
     id="path7" />
  <path
     d="m 891.001,242.502 26.42,-62.028 c 10.82,-25.206 12.41,-34.403 12.41,-42.02 0,-8.391 -2.01,-14.813 -14.02,-21.203 l 1.61,-9.198 c 11.63,1.194 18.41,1.194 27.23,1.194 8.82,0 14.41,0 26.04,-1.194 l 1.19,9.198 c -7.2,6.39 -11.63,13.619 -19.22,28.82 -6,12.005 -10.82,24.011 -15.63,34.822 l -70.9,160.074 c -7.63,17.202 -15.22,29.627 -23.23,38.018 -6.82,6.809 -17.64,12.812 -30.43,12.812 -10.82,0 -18.83,-7.197 -18.83,-16.814 0,-8.811 6.01,-16.395 15.21,-16.395 7.63,0 10.4,2.001 17.64,2.001 8.4,0 14.41,-6.39 20.42,-19.202 l 28.84,-62.416 -39.67,-98.046 c -4.39,-11.198 -9.62,-26.012 -16.02,-40.405 -6.01,-13.2 -8.82,-16.815 -18.41,-23.205 l 1.61,-9.197 c 11.63,0.806 23.65,1.194 32.44,1.194 8.78,0 16.02,-0.388 27.65,-1.194 l 1.19,9.197 c -8.82,4.002 -12.01,9.618 -12.01,16.008 0,9.198 1.61,16.814 13.63,46.828 l 24.84,62.416 z"
     fill="#e1e1e1"
     id="path8" />
  <path
     d="m 1056.861,98.854 c 38.44,0 67.68,28.4 67.68,66.837 0,3.195 0,6.003 -0.81,9.198 h -123.36 c -0.81,4.809 -0.81,9.198 -0.81,15.201 0,41.212 24.84,69.225 56.88,69.225 25.65,0 41.25,-8.81 57.66,-32.402 l 9.63,6.003 c -12.02,30.014 -35.66,54.832 -71.29,54.832 -50.07,0 -83.31,-42.407 -83.31,-91.236 0,-55.639 38.05,-97.626 87.7,-97.626 z m 32.43,60.028 c -0.38,-27.206 -18.83,-42.02 -41.25,-42.02 -24.42,0 -40.05,18.396 -44.86,42.02 z"
     fill="#e1e1e1"
     id="path9" />
  <path
     d="m 1219.411,125.671 c -18.83,0 -34.43,22.01 -34.43,60.415 v 18.815 c 0,12.393 0,26.399 0.81,38.824 1.19,16.395 4.81,23.624 22.41,28.82 l -1.19,9.198 c -14.02,-1.194 -26.84,-1.194 -36.05,-1.194 -9.21,0 -18.03,0 -32.04,1.194 l -1.2,-9.198 c 14.83,-6.003 16.83,-12.393 18.03,-28.82 1.19,-12.392 1.19,-26.399 1.19,-38.824 v -10.005 c 0,-12.392 0,-25.205 -1.19,-37.63 -1.2,-16.394 -5.21,-20.009 -19.64,-22.817 v -8.391 c 18.41,-8.81 28.42,-15.2 42.44,-28.013 l 8.4,3.195 c -1.2,12.813 -2,28.82 -2.39,38.825 l 0.39,0.387 c 10.82,-26.399 29.23,-41.632 48.06,-41.632 16.41,0 25.65,9.198 25.65,20.009 0,10.812 -6.01,14.007 -14.41,14.007 -10.4,0 -15.21,-7.197 -24.84,-7.197 z"
     fill="#e1e1e1"
     id="path10" />
</svg>
