<?xml version="1.0" encoding="UTF-8" standalone="no"?>
<svg
   width="789.28198"
   height="615.39398"
   viewBox="0 0 789.28198 615.39398"
   fill="none"
   version="1.1"
   id="svg10"
   sodipodi:docname="eigenlayer-2.svg"
   inkscape:version="1.4 (e7c3feb100, 2024-10-09)"
   xmlns:inkscape="http://www.inkscape.org/namespaces/inkscape"
   xmlns:sodipodi="http://sodipodi.sourceforge.net/DTD/sodipodi-0.dtd"
   xmlns="http://www.w3.org/2000/svg"
   xmlns:svg="http://www.w3.org/2000/svg">
  <defs
     id="defs10" />
  <sodipodi:namedview
     id="namedview10"
     pagecolor="#ffffff"
     bordercolor="#000000"
     borderopacity="0.25"
     inkscape:showpageshadow="2"
     inkscape:pageopacity="0.0"
     inkscape:pagecheckerboard="0"
     inkscape:deskcolor="#d1d1d1"
     inkscape:zoom="0.33477181"
     inkscape:cx="634.76074"
     inkscape:cy="690.02226"
     inkscape:window-width="1908"
     inkscape:window-height="1031"
     inkscape:window-x="0"
     inkscape:window-y="0"
     inkscape:window-maximized="1"
     inkscape:current-layer="svg10" />
  <path
     d="M 1.215,297.591 0,287.427 c 16.286,-6.492 19.143,-15.444 20.358,-33.347 1.215,-13.41 1.215,-31.313 1.215,-45.544 V 100.431 c 0,-14.23 0,-32.133 -1.215,-45.544 C 19.143,36.984 16.286,28.066 0,21.541 L 1.215,11.376 c 15.892,1.213 26.859,1.213 37.038,1.213 h 74.895 c 16.68,0 29.321,0 45.18,-1.213 2.857,20.723 4.466,35.773 5.713,58.135 l -11.82,2.033 c -5.286,-15.05 -9.785,-23.575 -15.892,-30.1 -6.107,-6.525 -15.465,-9.771 -23.214,-10.985 -10.179,-1.639 -19.142,-2.033 -35.001,-2.033 -19.143,0 -21.573,3.247 -22.788,19.51 -1.214,12.591 -1.214,27.248 -1.214,41.871 v 52.037 c 13.856,0 42.356,-0.82 55.358,-2.033 18.322,-2.033 24.035,-8.525 30.142,-27.248 l 9.785,2.033 c -1.215,15.87 -1.215,24.788 -1.215,34.953 0,10.165 0,19.509 1.215,35.379 l -9.785,2.033 c -6.107,-18.689 -11.82,-24.788 -30.142,-27.247 -13.035,-1.64 -41.929,-2.033 -55.358,-2.033 v 54.888 c 0,14.231 0.82,36.2 1.214,44.331 0.821,19.936 7.749,23.575 26.071,23.575 18.322,0 32.178,-0.393 43.144,-2.032 14.251,-2.033 20.752,-7.739 26.859,-16.264 4.892,-7.738 8.964,-16.263 14.25,-31.313 l 11,2.033 c -2.036,24.395 -5.287,44.33 -9.785,65.446 -29.715,-1.639 -66.752,-2.032 -118.893,-2.032 -19.964,0 -30.931,0 -46.822,1.213 z"
     fill="#1a0c6d"
     id="path1" />
  <path
     d="m 225.419,170.339 c 5.714,-15.444 6.929,-23.182 6.929,-27.248 0,-2.426 -1.215,-3.672 -3.251,-3.672 -4.072,0 -12.214,6.492 -30.93,28.461 l -7.749,-6.919 c 23.214,-33.74 39.894,-49.183 53.323,-49.183 8.537,0 16.286,7.738 16.286,19.935 0,13.018 -6.501,30.888 -12.608,47.577 l -26.465,74.792 c -4.465,12.197 -5.286,15.444 -5.286,17.083 0,2.033 1.641,4.066 4.071,4.066 4.466,0 12.609,-4.459 32.572,-32.92 l 8.143,5.705 c -21.572,41.872 -40.321,53.249 -54.571,53.249 -9.358,0 -17.501,-8.131 -17.501,-18.689 0,-9.345 2.857,-18.297 12.609,-44.725 l 24.428,-67.479 z M 256.776,0 c 12.215,0 21.573,9.345 21.573,21.542 0,12.198 -9.358,21.543 -21.573,21.543 -12.214,0 -21.572,-9.345 -21.572,-21.543 C 235.204,9.345 244.562,0 256.776,0 Z"
     fill="#1a0c6d"
     id="path2" />
  <path
     d="m 411.186,39.6 c 9.785,10.984 13.429,24.788 13.429,39.838 0,39.839 -29.321,68.3 -65.143,68.3 -18.322,0 -31.751,-5.279 -43.572,-15.051 -12.608,9.772 -15.465,19.116 -15.465,28.461 0,11.804 9.358,19.51 27.68,20.33 l 49.251,1.639 c 39.5,1.213 58.61,24.788 58.61,55.282 0,36.593 -36.249,68.693 -92.823,68.693 -46.001,0 -69.215,-20.329 -69.215,-47.97 0,-19.116 9.358,-34.166 32.572,-50.003 -17.501,-6.099 -29.322,-19.51 -29.322,-38.626 0,-15.87 7.323,-32.133 28.107,-47.97 -9.358,-12.591 -13.856,-25.608 -13.856,-43.085 0,-38.232 30.536,-68.299 66.358,-68.299 23.608,0 29.715,8.131 52.929,8.131 10.179,0 24.429,-0.393 38.679,-1.639 l 3.251,6.918 -3.251,15.051 H 411.12 Z m -41.109,174.404 c -18.321,0 -32.966,0 -49.678,-1.213 -14.251,13.411 -19.964,26.821 -19.964,39.445 0,17.477 15.071,32.133 49.252,32.133 46.822,0 63.929,-19.935 63.929,-39.019 0,-19.083 -13.036,-31.313 -43.572,-31.313 z M 322.861,76.979 c 0,35.773 13.856,54.495 36.643,54.495 21.179,0 34.214,-14.23 34.214,-50.003 0,-33.74 -14.25,-54.069 -36.643,-54.069 -19.964,0 -34.214,15.444 -34.214,49.61 z"
     fill="#1a0c6d"
     id="path3" />
  <path
     d="m 531.23,115.377 c 39.073,0 68.821,28.854 68.821,67.906 0,3.246 0,6.099 -0.821,9.345 H 473.835 c -0.821,4.885 -0.821,9.345 -0.821,15.443 0,41.872 25.25,70.333 57.822,70.333 26.07,0 41.93,-8.952 58.609,-32.92 l 9.785,6.098 c -12.214,30.494 -36.249,55.709 -72.466,55.709 -50.893,0 -84.68,-43.085 -84.68,-92.695 0,-56.528 38.679,-99.186 89.146,-99.186 z m 32.966,60.987 c -0.394,-27.641 -19.143,-42.691 -41.93,-42.691 -24.823,0 -40.715,18.69 -45.607,42.691 z"
     fill="#1a0c6d"
     id="path4" />
  <path
     d="m 768.997,114.931 c 0,12.591 0,26.821 0.821,39.445 1.215,16.657 3.677,23.182 18.715,29.28 l -1.215,9.345 c -14.25,-1.213 -23.213,-1.213 -32.571,-1.213 -9.358,0 -18.322,0 -32.572,1.213 l -1.215,-9.345 c 15.071,-6.098 17.107,-12.591 18.322,-29.28 1.215,-12.591 1.215,-26.822 1.215,-39.445 V 71.846 c 0,-22.756 -13.857,-38.232 -35.429,-38.232 -28.106,0 -45.607,19.116 -45.607,45.118 v 36.199 c 0,12.591 0,26.821 0.821,39.445 1.215,16.657 3.677,23.182 18.716,29.28 l -1.215,9.345 c -14.25,-1.213 -23.214,-1.213 -32.572,-1.213 -9.358,0 -18.322,0 -32.572,1.213 l -1.215,-9.345 c 15.071,-6.098 17.107,-12.591 18.322,-29.28 1.215,-12.591 1.215,-26.822 1.215,-39.445 v -10.165 c 0,-12.591 0,-25.608 -1.215,-38.232 -1.215,-16.657 -5.286,-20.329 -19.963,-23.182 v -8.525 c 18.715,-8.951 28.894,-15.444 43.144,-28.461 l 8.537,3.246 c -1.215,13.018 -2.036,24.002 -2.43,34.166 l 0.394,0.394 c 11,-20.723 30.142,-36.986 54.571,-36.986 19.963,0 36.643,9.345 46.428,25.215 5.286,9.345 8.537,19.509 8.537,35.772 v 46.758 z"
     fill="#1a0c6d"
     id="path5" />
  <path
     d="m 54.112,524.306 c 0,14.23 0.394,36.199 1.214,44.331 2.036,19.936 7.749,23.575 26.071,23.575 18.322,0 29.715,0 41.536,-2.033 14.644,-2.852 22.393,-9.345 28.5,-18.69 5.286,-7.738 9.785,-17.083 15.071,-32.92 l 11.82,2.033 c -2.035,26.035 -5.713,46.757 -10.178,69.513 -32.178,-1.64 -68.001,-2.033 -120.109,-2.033 -19.963,0 -30.93,0 -46.822,1.213 L 0,599.131 c 16.286,-6.493 19.143,-15.444 20.358,-33.347 1.215,-13.411 1.215,-31.313 1.215,-45.544 V 412.102 c 0,-14.23 0,-32.133 -1.215,-45.544 C 19.143,348.655 16.286,339.737 0,333.212 l 1.215,-10.165 c 15.892,1.213 26.859,1.213 36.25,1.213 10.178,0 21.178,0 37.037,-1.213 l 1.215,10.165 c -16.286,6.492 -19.143,15.443 -20.358,33.346 -1.215,13.411 -1.215,31.314 -1.215,45.544 v 112.204 z"
     fill="#1a0c6d"
     id="path6" />
  <path
     d="m 198.406,453.546 c 7.749,-14.231 28.106,-29.281 52.108,-29.281 19.964,0 35.429,6.918 45.181,21.149 6.501,9.345 12.214,25.608 12.214,43.904 v 39.019 c 0,12.591 0,24.395 0.821,36.986 0.821,13.411 7.322,23.576 20.357,29.674 l -5.286,16.264 c -28.106,-1.214 -38.679,-13.411 -42.357,-31.707 h -0.82 c -11,24.788 -28.895,34.953 -47.216,34.953 -26.071,0 -42.357,-17.083 -42.357,-38.626 0,-19.116 9.785,-30.493 25.644,-40.658 15.071,-9.771 41.93,-19.51 62.681,-24.789 v -19.935 c 0,-12.591 -3.251,-22.362 -8.537,-29.281 -6.107,-8.132 -16.68,-11.378 -25.644,-11.378 -13.856,0 -25.25,5.706 -39.073,16.657 l -7.749,-13.017 z m 81.003,71.152 c -8.537,2.852 -15.892,6.098 -23.608,9.345 -27.68,11.804 -35.823,24.001 -35.823,34.953 0,10.951 6.108,20.722 20.358,20.722 16.68,0 39.073,-14.624 39.073,-42.691 v -22.362 z"
     fill="#1a0c6d"
     id="path7" />
  <path
     d="m 444.45,462.831 26.858,-63.021 c 11,-25.608 12.609,-34.953 12.609,-42.691 0,-8.525 -2.036,-15.05 -14.25,-21.542 l 1.641,-9.345 c 11.821,1.213 18.716,1.213 27.68,1.213 8.964,0 14.644,0 26.464,-1.213 l 1.215,9.345 c -7.322,6.492 -11.82,13.837 -19.536,29.28 -6.107,12.198 -11,24.395 -15.892,35.38 L 419.167,562.87 c -7.749,17.476 -15.465,30.1 -23.608,38.625 -6.928,6.919 -17.927,13.018 -30.93,13.018 -10.999,0 -19.142,-7.312 -19.142,-17.083 0,-8.952 6.107,-16.657 15.465,-16.657 7.749,0 10.572,2.033 17.927,2.033 8.537,0 14.644,-6.493 20.752,-19.51 l 29.321,-63.414 -40.321,-99.613 c -4.465,-11.377 -9.785,-26.428 -16.286,-41.052 -6.107,-13.41 -8.964,-17.083 -18.715,-23.575 l 1.641,-9.345 c 11.821,0.82 24.035,1.214 32.966,1.214 8.931,0 16.286,-0.394 28.106,-1.214 l 1.215,9.345 c -8.963,4.066 -12.214,9.771 -12.214,16.264 0,9.344 1.642,17.083 13.856,47.576 l 25.25,63.414 z"
     fill="#1a0c6d"
     id="path8" />
  <path
     d="m 566.809,423.48 c 39.073,0 68.788,28.854 68.788,67.906 0,3.246 0,6.099 -0.821,9.345 H 509.381 c -0.821,4.885 -0.821,9.345 -0.821,15.444 0,41.871 25.25,70.332 57.822,70.332 26.07,0 41.929,-8.951 58.609,-32.92 l 9.785,6.099 c -12.214,30.493 -36.249,55.708 -72.466,55.708 -50.893,0 -84.68,-43.085 -84.68,-92.694 0,-56.529 38.679,-99.187 89.146,-99.187 z m 32.965,60.988 c -0.394,-27.642 -19.142,-42.692 -41.929,-42.692 -24.823,0 -40.715,18.69 -45.607,42.692 z"
     fill="#1a0c6d"
     id="path9" />
  <path
     d="m 749.388,451.368 c -19.142,0 -35.001,22.363 -35.001,61.381 v 19.116 c 0,12.591 0,26.822 0.821,39.446 1.215,16.656 4.892,24.001 22.787,29.28 l -1.215,9.345 c -14.25,-1.213 -27.285,-1.213 -36.643,-1.213 -9.358,0 -18.322,0 -32.572,1.213 l -1.215,-9.345 c 15.071,-6.099 17.107,-12.591 18.322,-29.28 1.215,-12.591 1.215,-26.822 1.215,-39.446 v -10.164 c 0,-12.591 0,-25.608 -1.215,-38.232 -1.215,-16.657 -5.287,-20.329 -19.964,-23.182 v -8.525 c 18.716,-8.951 28.895,-15.444 43.145,-28.461 l 8.537,3.246 c -1.215,13.017 -2.036,29.281 -2.43,39.445 l 0.394,0.394 c 11,-26.822 29.715,-42.298 48.858,-42.298 16.68,0 26.07,9.345 26.07,20.329 0,10.985 -6.107,14.231 -14.644,14.231 -10.573,0 -15.465,-7.312 -25.25,-7.312 z"
     fill="#1a0c6d"
     id="path10" />
</svg>
