<svg width="376" height="79" viewBox="0 0 376 79" fill="none" xmlns="http://www.w3.org/2000/svg">
<g clip-path="url(#clip0_7927_22)">
<path d="M17.8471 -3.05176e-05L0 78.9126H39.9614L57.8085 -3.05176e-05H17.8471Z" fill="#F4F4F4"/>
<path d="M235.185 -3.05176e-05L213.468 30.3368H211.874L204.014 -3.05176e-05H160.722L186.031 60.1971L181.764 78.9126H221.731L225.992 60.1971L278.478 -3.05176e-05H235.185Z" fill="#F4F4F4"/>
<path d="M354.945 -3.05176e-05H297.267C283.949 -3.05176e-05 276.35 4.6301 274.222 14.1774L271.816 24.5749C271.517 25.9233 271.392 27.1851 271.419 28.371C271.577 35.0698 276.633 39.3696 283.344 42.0232C290.513 44.8608 299.564 45.8193 306.536 45.8193H328.798L327.954 49.6155L324.563 62.8452H303.249L306.183 49.6155H266.216L263.554 61.9029C261.023 73.3348 267.549 78.9126 283.665 78.9126H340.941C354.395 78.9126 361.988 74.1904 364.116 64.7352L367.475 49.6155C367.774 48.2671 367.899 47.0053 367.877 45.8193C367.719 39.1205 362.663 34.8207 355.947 32.1672C348.778 29.335 339.727 28.371 332.755 28.371H310.836L311.68 24.5749L313.634 16.0673H334.948L333.087 24.5749H373.053L374.915 17.0096C377.582 5.57779 371.061 -3.05176e-05 354.94 -3.05176e-05L354.945 -3.05176e-05Z" fill="#F4F4F4"/>
<path d="M139.816 -3.05176e-05H63.3764L45.5238 78.9126H85.4852L92.1582 49.6155H113.456L106.799 78.9126H146.761L149.232 68.1848L150.881 61.0202C153.325 50.5415 148.274 45.0449 135.015 44.2055C133.807 44.1243 132.533 44.0864 131.183 44.0864H131.423L132.19 40.2198H134.308C135.091 40.2198 135.848 40.2036 136.594 40.1711C148.622 39.6512 155.475 34.9453 157.489 26.0478L159.519 16.9446C162.175 5.50739 155.932 -3.05176e-05 139.816 -3.05176e-05ZM115.601 34.2088H95.6144L99.7455 16.0619H119.726L115.601 34.2088Z" fill="#F4F4F4"/>
</g>
<defs>
<clipPath id="clip0_7927_22">
<rect width="375.497" height="78.918" fill="white"/>
</clipPath>
</defs>
</svg>
