<svg width="1000" height="240" viewBox="0 0 1000 240" fill="none" xmlns="http://www.w3.org/2000/svg">
<g clip-path="url(#clip0_200_2464)">
<path d="M9.10791 163.176L102.888 117.174V240C59.6514 233.055 24.0958 203.152 9.10791 163.176Z" fill="#F4F4F4"/>
<path d="M198.565 27.186L1.47569 123.865C1.45153 122.838 1.43945 121.812 1.43945 120.773C1.43945 54.0821 55.5216 0 122.212 0C151.174 0 177.756 10.1932 198.565 27.186Z" fill="#F4F4F4"/>
<path d="M242.984 120.773C242.984 180.894 199.059 230.761 141.535 240V98.2127L224.965 57.2827C236.39 75.7247 242.984 97.488 242.984 120.773Z" fill="#F4F4F4"/>
<path d="M377.787 192C366.079 192 356.193 189.528 348.128 184.585C340.193 179.512 334.144 172.228 329.982 162.732C325.169 151.415 322.762 137.171 322.762 120C322.762 102.829 325.169 88.5854 329.982 77.2683C334.144 67.7724 340.193 60.5528 348.128 55.6098C356.193 50.5366 366.079 48 377.787 48C389.364 48 399.12 50.5366 407.055 55.6098C415.12 60.5528 421.299 67.7724 425.591 77.2683C430.535 88.4553 433.006 102.699 433.006 120C433.006 137.301 430.535 151.545 425.591 162.732C421.299 172.228 415.12 179.512 407.055 184.585C399.12 189.528 389.364 192 377.787 192ZM377.787 176.976C385.852 176.976 392.486 175.285 397.689 171.902C403.022 168.52 407.185 163.642 410.177 157.268C413.949 148.683 415.835 136.26 415.835 120C415.835 111.935 415.38 104.846 414.47 98.7317C413.559 92.6179 412.128 87.2846 410.177 82.7317C407.185 76.2276 403.087 71.2846 397.884 67.9024C392.681 64.5203 385.982 62.8293 377.787 62.8293C362.047 62.8293 351.185 69.4634 345.201 82.7317C343.25 87.2846 341.819 92.6179 340.909 98.7317C340.128 104.846 339.738 111.935 339.738 120C339.738 136.13 341.559 148.553 345.201 157.268C351.185 170.407 362.047 176.976 377.787 176.976Z" fill="#F4F4F4"/>
<path d="M485.892 190.439C476.266 190.439 469.176 188.033 464.623 183.22C460.071 178.407 457.794 170.862 457.794 160.585V107.317H441.989V94.0488H457.794V71.0244H473.404V94.0488H502.867V107.317H473.404V158.244C473.404 164.488 474.77 169.171 477.502 172.293C480.233 175.285 484.331 176.78 489.794 176.78C493.567 176.78 497.664 176.26 502.087 175.22V188.488C496.493 189.789 491.095 190.439 485.892 190.439Z" fill="#F4F4F4"/>
<path d="M561.146 91.7073C572.984 91.7073 581.959 95.0894 588.073 101.854C594.317 108.488 597.439 118.374 597.439 131.512V188.878H581.829V134.439C581.829 124.423 579.813 117.073 575.78 112.39C571.748 107.707 565.569 105.366 557.244 105.366C548.398 105.366 541.569 107.902 536.756 112.976C532.073 118.049 529.732 125.398 529.732 135.024V188.878H514.122V51.122H529.732V106.927C536.236 96.7805 546.707 91.7073 561.146 91.7073Z" fill="#F4F4F4"/>
<path d="M681.154 171.122C683.235 169.171 684.926 166.894 686.227 164.293C687.528 161.561 688.308 158.634 688.569 155.512H704.178C703.398 165.398 699.625 173.528 692.861 179.902C688.699 183.545 683.756 186.341 678.032 188.293C672.308 190.114 665.934 191.024 658.91 191.024C648.243 191.024 639.138 188.878 631.593 184.585C624.048 180.293 618.585 174.179 615.203 166.244C611.951 159.61 610.325 151.35 610.325 141.463C610.325 136.39 610.715 131.837 611.495 127.805C612.276 123.772 613.512 120 615.203 116.488C618.715 108.683 624.113 102.634 631.398 98.3415C638.682 93.9187 647.463 91.7073 657.739 91.7073C668.016 91.7073 676.731 93.8537 683.886 98.1463C691.17 102.439 696.504 108.358 699.886 115.902C701.707 120.065 702.943 124.423 703.593 128.976C704.373 133.528 704.764 138.862 704.764 144.976H626.13C626.52 151.87 627.691 157.528 629.642 161.951C631.983 167.154 635.625 171.187 640.569 174.049C645.512 176.78 651.56 178.146 658.715 178.146C663.398 178.146 667.625 177.561 671.398 176.39C675.3 175.22 678.552 173.463 681.154 171.122ZM657.934 104.78C643.886 104.78 634.455 110.244 629.642 121.171C628.081 124.813 627.04 128.78 626.52 133.073H688.764C688.243 128.26 687.203 123.967 685.642 120.195C683.43 115.122 679.983 111.285 675.3 108.683C670.617 106.081 664.829 104.78 657.934 104.78Z" fill="#F4F4F4"/>
<path d="M765.613 91.7073C777.45 91.7073 786.426 95.0894 792.54 101.854C798.784 108.488 801.905 118.374 801.905 131.512V188.878H786.296V134.439C786.296 124.423 784.279 117.073 780.247 112.39C776.214 107.707 770.036 105.366 761.71 105.366C752.865 105.366 746.036 107.902 741.223 112.976C736.54 118.049 734.198 125.398 734.198 135.024V188.878H718.588V94.0488H734.198V106.927C740.702 96.7805 751.174 91.7073 765.613 91.7073Z" fill="#F4F4F4"/>
<path d="M851.951 190.439C842.325 190.439 835.236 188.033 830.683 183.22C826.13 178.407 823.854 170.862 823.854 160.585V107.317H808.049V94.0488H823.854V71.0244H839.463V94.0488H868.927V107.317H839.463V158.244C839.463 164.488 840.829 169.171 843.561 172.293C846.293 175.285 850.39 176.78 855.854 176.78C859.626 176.78 863.724 176.26 868.146 175.22V188.488C862.553 189.789 857.154 190.439 851.951 190.439Z" fill="#F4F4F4"/>
<path d="M888.181 77.0732C884.929 77.0732 882.328 76.2276 880.376 74.5366C878.555 72.7155 877.645 70.3089 877.645 67.3171C877.645 64.4553 878.62 62.1138 880.572 60.2927C882.523 58.4715 885.059 57.561 888.181 57.561C891.043 57.561 893.45 58.4715 895.401 60.2927C897.352 62.1138 898.328 64.4553 898.328 67.3171C898.328 70.1789 897.352 72.5203 895.401 74.3415C893.45 76.1626 891.043 77.0732 888.181 77.0732ZM880.181 94.0488H895.791V188.878H880.181V94.0488Z" fill="#F4F4F4"/>
<path d="M956.331 191.024C946.314 191.024 937.664 188.943 930.38 184.78C923.095 180.488 917.697 174.439 914.184 166.634C911.062 159.35 909.502 150.959 909.502 141.463C909.502 131.837 911.062 123.512 914.184 116.488C917.697 108.553 923.03 102.439 930.184 98.1463C937.469 93.8537 946.184 91.7073 956.331 91.7073C969.729 91.7073 980.461 95.3496 988.526 102.634C992.038 105.886 994.77 109.724 996.721 114.146C998.802 118.569 999.908 123.447 1000.04 128.78H983.258C982.737 121.886 980.266 116.228 975.843 111.805C973.501 109.724 970.64 108.163 967.258 107.122C964.006 105.951 960.363 105.366 956.331 105.366C949.957 105.366 944.493 106.797 939.941 109.659C935.518 112.39 932.136 116.293 929.794 121.366C927.453 126.439 926.282 133.138 926.282 141.463C926.282 149.659 927.453 156.358 929.794 161.561C932.136 166.504 935.518 170.407 939.941 173.268C944.493 176 949.957 177.366 956.331 177.366C960.493 177.366 964.201 176.846 967.453 175.805C970.835 174.634 973.632 173.008 975.843 170.927C978.054 168.976 979.745 166.569 980.916 163.707C982.217 160.846 982.932 157.724 983.062 154.341H1000.04C999.388 165.138 995.615 173.789 988.721 180.293C984.819 183.805 980.071 186.472 974.477 188.293C969.014 190.114 962.965 191.024 956.331 191.024Z" fill="#F4F4F4"/>
</g>
<defs>
<clipPath id="clip0_200_2464">
<rect width="1000" height="240" fill="white"/>
</clipPath>
</defs>
</svg>
