<?xml version="1.0" encoding="UTF-8"?>
<svg version="1.1" xmlns="http://www.w3.org/2000/svg" width="544" height="160">
<path d="M0 0 C1.15030701 -0.01358047 2.30061401 -0.02716095 3.48577881 -0.04115295 C7.28323922 -0.07841226 11.07957036 -0.07848553 14.87719727 -0.07495117 C17.51986634 -0.08593962 20.16253126 -0.09797329 22.80519104 -0.11100769 C28.34239197 -0.13380113 33.87927748 -0.13351369 39.41650391 -0.12207031 C45.80637199 -0.10938851 52.19472979 -0.14457475 58.58431 -0.20295411 C64.74501442 -0.25717811 70.90501036 -0.26677009 77.06593513 -0.25913048 C79.68102205 -0.26133661 82.29613036 -0.27623355 84.91106987 -0.30408669 C88.56952054 -0.33858996 92.22439046 -0.32218278 95.8828125 -0.29296875 C96.96095718 -0.31387573 98.03910187 -0.33478271 99.1499176 -0.35632324 C106.35572243 -0.225304 106.35572243 -0.225304 109.67845345 2.43166542 C111.44980136 4.44180775 112.98132093 6.49455504 114.50610352 8.69458008 C115.43511618 9.75314085 116.38206611 10.79634844 117.34985352 11.81958008 C121.84223223 16.6819194 126.29521487 21.56663164 130.63110352 26.56958008 C133.05161157 29.31282254 135.52849272 32.00306583 138.00610352 34.69458008 C144.7425359 42.02972984 144.7425359 42.02972984 147.63110352 45.25708008 C148.16993164 45.85649414 148.70875977 46.4559082 149.26391602 47.07348633 C150.50610352 48.69458008 150.50610352 48.69458008 151.50610352 51.69458008 C97.05610352 52.02458008 42.60610352 52.35458008 -13.49389648 52.69458008 C-8.54389648 57.97458008 -3.59389648 63.25458008 1.50610352 68.69458008 C6.97361514 74.60841918 12.38697327 80.48239711 17.50610352 86.69458008 C16.51610352 87.18958008 16.51610352 87.18958008 15.50610352 87.69458008 C12.89613982 86.77836745 10.39443661 85.78989251 7.85375977 84.70629883 C7.06226532 84.3759967 6.27077087 84.04569458 5.45529175 83.7053833 C2.82326855 82.6049197 0.19601123 81.49351321 -2.43139648 80.38208008 C-4.25523264 79.61711998 -6.07937449 78.85288836 -7.90380859 78.08935547 C-11.75949212 76.47429021 -15.6132347 74.85470988 -19.46557617 73.23168945 C-25.5669806 70.66191855 -31.67434693 68.10653704 -37.78295898 65.55395508 C-48.02276212 61.27422075 -58.25933586 56.9868349 -68.49389648 52.69458008 C-68.49389648 48.69458008 -68.49389648 48.69458008 -65.81811523 45.99536133 C-64.61586985 44.9872276 -63.40286213 43.99183855 -62.18139648 43.00708008 C-61.54129639 42.47526123 -60.90119629 41.94344238 -60.24169922 41.39550781 C-58.33547913 39.81621765 -56.4170268 38.25320892 -54.49389648 36.69458008 C-53.55288086 35.92629883 -52.61186523 35.15801758 -51.64233398 34.36645508 C-49.89806731 32.94363936 -48.15192872 31.52311581 -46.40405273 30.10473633 C-42.88460234 27.18997003 -39.43818756 24.19743921 -35.99389648 21.19458008 C-30.72179195 16.59830101 -25.39731998 12.09355769 -19.95874023 7.69458008 C-17.39759763 5.70665722 -17.39759763 5.70665722 -15.05821228 3.11299133 C-10.59903406 -0.56987322 -5.53723698 -0.02772297 0 0 Z " fill="#EE6F53" transform="translate(69.493896484375,-0.694580078125)"/>
<path d="M0 0 C3.34702887 0.59057779 6.31755229 1.4150548 9.45019531 2.72729492 C10.30538757 3.08291 11.16057983 3.43852509 12.04168701 3.80491638 C12.96121155 4.19284866 13.88073608 4.58078094 14.828125 4.98046875 C15.79840637 5.38560196 16.76868774 5.79073517 17.76837158 6.20814514 C20.93083449 7.53006168 24.09044597 8.85864767 27.25 10.1875 C29.41848521 11.095699 31.5871057 12.00357508 33.75585938 12.91113281 C51.19530432 20.21548712 68.61019518 27.57825298 86 35 C86 35.99 86 36.98 86 38 C83.82137034 40.1213766 81.64607094 42.06223707 79.3125 44 C78.63203613 44.57669434 77.95157227 45.15338867 77.25048828 45.74755859 C75.17314995 47.50582704 73.08675437 49.25292649 71 51 C69.85447712 51.97018453 68.70987456 52.94145727 67.56640625 53.9140625 C64.91424817 56.16861798 62.25491569 58.4144741 59.59277344 60.65722656 C57.43509047 62.47624194 55.28089906 64.29936497 53.12695312 66.12280273 C52.05040053 67.03409223 50.97358161 67.9450672 49.89648438 68.85571289 C47.05960939 71.25438893 44.22655574 73.65740935 41.3984375 76.06640625 C40.51381836 76.81857422 40.51381836 76.81857422 39.61132812 77.5859375 C38.48132318 78.54688659 37.35236044 79.50906304 36.22460938 80.47265625 C29.43590675 86.24004963 29.43590675 86.24004963 24.14413452 86.30780029 C23.14331848 86.32500122 22.14250244 86.34220215 21.11135864 86.35992432 C20.01419525 86.36844421 18.91703186 86.37696411 17.78662109 86.38574219 C16.63021118 86.40209717 15.47380127 86.41845215 14.28234863 86.43530273 C10.44606605 86.48502439 6.60993168 86.51804788 2.7734375 86.546875 C1.4635146 86.55752235 0.15359169 86.56816971 -1.19602585 86.57913971 C-6.70339747 86.62239447 -12.21075755 86.65986119 -17.718256 86.68238449 C-25.59684704 86.71482151 -33.47345878 86.78106465 -41.3513037 86.89518619 C-46.89795538 86.97277961 -52.44408003 87.01167243 -57.99125993 87.02222562 C-61.30073262 87.02951017 -64.60761786 87.05833573 -67.91661453 87.11843109 C-71.61601515 87.181776 -75.31045199 87.18180774 -79.01025391 87.16699219 C-80.09527191 87.19980286 -81.18028992 87.23261353 -82.29818726 87.26641846 C-87.0052483 87.1894719 -89.87800269 86.92461806 -93.58317184 83.87125397 C-95.87931466 81.33754444 -97.94227784 78.72895915 -100 76 C-101.48509251 74.32003631 -102.98333276 72.65151393 -104.5 71 C-113.5 61 -113.5 61 -115.74609375 58.50390625 C-117.25854015 56.82370149 -118.77156859 55.14402049 -120.28515625 53.46484375 C-122.52557582 50.9784776 -124.76280793 48.48927005 -127 46 C-127.7734375 45.1440625 -128.546875 44.288125 -129.34375 43.40625 C-130.0759375 42.5915625 -130.808125 41.776875 -131.5625 40.9375 C-132.55443359 39.83728516 -132.55443359 39.83728516 -133.56640625 38.71484375 C-135 37 -135 37 -135 36 C-80.22 35.67 -25.44 35.34 31 35 C27.535 31.535 27.535 31.535 24 28 C22.83171446 26.70925544 21.67720513 25.40555932 20.55078125 24.078125 C16.26029261 19.10552179 11.71812618 14.38087321 7.16601562 9.6484375 C6.52728516 8.97554687 5.88855469 8.30265625 5.23046875 7.609375 C4.65707764 7.01092773 4.08368652 6.41248047 3.49291992 5.79589844 C1.96366694 3.95629337 0.97836098 2.17519964 0 0 Z " fill="#EE6F53" transform="translate(144,74)"/>
<path d="M0 0 C14 0 14 0 17.2043457 2.05371094 C17.91679443 3.02083008 18.62924316 3.98794922 19.36328125 4.984375 C20.24545615 6.09606951 21.13334417 7.20324632 22.02587891 8.30664062 C22.49398987 8.90420166 22.96210083 9.5017627 23.44439697 10.11743164 C26.34222116 13.6243367 29.61885058 16.7620964 32.85546875 19.953125 C34.09947771 21.19406008 35.34320222 22.43528037 36.58666992 23.67675781 C38.10494385 25.18592773 39.62321777 26.69509766 41.1875 28.25 C46.075625 33.1175 50.96375 37.985 56 43 C56.33 28.81 56.66 14.62 57 0 C61.95 0 66.9 0 72 0 C72 22.77 72 45.54 72 69 C58 69 58 69 54.30078125 66.44921875 C53.26695154 65.22623887 52.27263652 63.96914796 51.3125 62.6875 C50.09625544 61.23698655 48.87152866 59.79356342 47.640625 58.35546875 C46.94259766 57.52837402 46.24457031 56.7012793 45.52539062 55.84912109 C40.15896631 49.79477348 34.30945849 44.1897083 28.5625 38.5 C22.3440625 32.3125 22.3440625 32.3125 16 26 C15.67 40.19 15.34 54.38 15 69 C10.05 69 5.1 69 0 69 C0 46.23 0 23.46 0 0 Z " fill="#EE6F53" transform="translate(392,22)"/>
<path d="M0 0 C3.669948 3.82997481 4.46589089 8.53332736 5.21875 13.58984375 C2.65368576 13.75260928 0.09899578 13.87098359 -2.46875 13.96484375 C-3.5505957 14.04025391 -3.5505957 14.04025391 -4.65429688 14.1171875 C-9.99874145 14.26361064 -9.99874145 14.26361064 -12.28686523 12.29345703 C-13.50444383 10.76621464 -14.64559946 9.17895193 -15.78125 7.58984375 C-21.08155416 4.1002025 -27.6402657 3.84283618 -33.78125 4.58984375 C-38.67253203 5.84742086 -38.67253203 5.84742086 -42.78125 8.58984375 C-42.82205783 10.58942739 -42.82379356 12.59029629 -42.78125 14.58984375 C-36.34073621 18.50967369 -29.24952856 18.94088732 -21.8984375 19.96289062 C-12.58413612 21.36472818 -3.39146495 23.49595454 3.21875 30.58984375 C6.2598722 35.86266399 7.15114512 41.59737175 6.21875 47.58984375 C4.07961393 54.30938981 0.15911589 58.34765794 -5.875 61.78125 C-16.60904298 66.65572838 -31.42987633 66.34525333 -42.59375 62.96484375 C-50.59732357 59.71089444 -56.22886114 55.5471948 -59.78125 47.58984375 C-60.15140483 45.59633014 -60.49095509 43.59654253 -60.78125 41.58984375 C-46.30677594 40.50683678 -46.30677594 40.50683678 -42.734375 43.04296875 C-41.85025405 44.28073807 -41.00179897 45.54478365 -40.19140625 46.83203125 C-37.40467068 50.30580135 -32.99038828 50.84349495 -28.78125 51.58984375 C-23.01587819 52.19672499 -18.03702304 50.92336416 -12.78125 48.58984375 C-10.49194764 46.70845616 -10.49194764 46.70845616 -10.40625 43.65234375 C-10.46656753 40.58688994 -10.46656753 40.58688994 -12.34765625 38.9921875 C-15.48135137 37.18641455 -18.57320936 36.64898844 -22.09375 36.08984375 C-23.52999178 35.83618572 -24.96618865 35.58227333 -26.40234375 35.328125 C-28.54425008 34.962688 -30.68669926 34.60490075 -32.83251953 34.26318359 C-41.31465937 32.90412058 -49.12698234 31.36574808 -55.78125 25.58984375 C-59.74065094 19.9050158 -60.56522549 14.39923087 -59.78125 7.58984375 C-58.19065326 2.22397522 -55.47788035 -1.40400081 -50.75390625 -4.3828125 C-35.03680894 -12.56815229 -13.95353047 -11.04654496 0 0 Z " fill="#EE6F53" transform="translate(315.78125,28.41015625)"/>
<path d="M0 0 C17.49 0 34.98 0 53 0 C53 12 53 12 50.76953125 15.21875 C49.79371094 15.9715625 48.81789063 16.724375 47.8125 17.5 C46.36810547 18.66015625 46.36810547 18.66015625 44.89453125 19.84375 C43.93933594 20.5553125 42.98414063 21.266875 42 22 C40.33067045 23.3299979 38.66310123 24.66222205 37 26 C38.21236328 26.43699219 38.21236328 26.43699219 39.44921875 26.8828125 C46.9777783 29.77072798 51.6182525 31.83527872 55.08984375 39.36328125 C57.28613346 45.72592312 56.74546756 52.18793268 54.0625 58.3125 C50.39227388 64.88962885 44.08875582 68.77411062 37 71 C25.41798441 72.32449988 14.67523419 71.55951399 5.1875 64.3125 C-1.59577491 57.91409175 -3.61462154 51.12062365 -4 42 C0.95 42 5.9 42 11 42 C11.556875 43.4025 12.11375 44.805 12.6875 46.25 C14.80771141 51.0487703 17.27571908 53.63785954 22 56 C27.85080968 56.54719803 33.13089477 56.65182893 38 53 C39.75 50.25 39.75 50.25 40 47 C38.90177446 43.82734843 38.09056708 41.72542185 35.25 39.8359375 C32.44442258 38.79358756 30.11152692 38.86740069 27.125 38.875 C21.62797934 38.54571637 21.62797934 38.54571637 18.8828125 36.16015625 C17.41560564 34.16292969 16.14146276 32.19781646 15 30 C16.59841879 25.75103867 19.8154502 23.17643105 23.125 20.25 C25.06375 18.5175 27.0025 16.785 29 15 C19.43 14.67 9.86 14.34 0 14 C0 9.38 0 4.76 0 0 Z " fill="#EE6F53" transform="translate(330,22)"/>
<path d="M0 0 C3.89228215 2.05426002 5.85545696 4.40147954 7.765625 8.27734375 C8.59097039 13.80195298 8.4671389 18.73940943 6.140625 23.83984375 C1.69226294 28.40526797 -1.96161129 29.47418079 -8.234375 29.71484375 C-13.37137565 29.56861725 -16.39735354 28.92251414 -20.234375 25.27734375 C-22.50187226 22.27444197 -24.04603949 19.84235027 -25.234375 16.27734375 C-27.214375 17.26734375 -27.214375 17.26734375 -29.234375 18.27734375 C-28.5846875 19.36015625 -28.5846875 19.36015625 -27.921875 20.46484375 C-26.359375 23.06901042 -24.796875 25.67317708 -23.234375 28.27734375 C-28.35090617 28.89485613 -28.35090617 28.89485613 -31.234375 28.27734375 C-32.99295278 26.62470439 -34.2915447 24.84712703 -35.71484375 22.90234375 C-37.32781176 20.87920245 -37.32781176 20.87920245 -41.109375 20.33984375 C-42.65625 20.30890625 -42.65625 20.30890625 -44.234375 20.27734375 C-44.234375 22.91734375 -44.234375 25.55734375 -44.234375 28.27734375 C-46.214375 28.27734375 -48.194375 28.27734375 -50.234375 28.27734375 C-50.234375 19.03734375 -50.234375 9.79734375 -50.234375 0.27734375 C-47.0375 0.19484375 -43.840625 0.11234375 -40.546875 0.02734375 C-39.54825439 -0.00907227 -38.54963379 -0.04548828 -37.52075195 -0.08300781 C-33.31381823 -0.13556799 -30.8834252 -0.11561291 -27.21484375 2.10546875 C-25.234375 4.27734375 -25.234375 4.27734375 -23.234375 7.27734375 C-22.491875 6.32859375 -21.749375 5.37984375 -20.984375 4.40234375 C-15.94938743 -2.03125147 -7.47557344 -2.4177991 0 0 Z M-44.234375 5.27734375 C-44.234375 8.57734375 -44.234375 11.87734375 -44.234375 15.27734375 C-37.44183238 15.96279526 -37.44183238 15.96279526 -31.609375 13.27734375 C-31.155625 12.61734375 -30.701875 11.95734375 -30.234375 11.27734375 C-31.01567571 8.78181891 -31.01567571 8.78181891 -32.234375 6.27734375 C-35.11648802 5.31663941 -36.93287544 5.17152492 -39.921875 5.21484375 C-41.345 5.23546875 -42.768125 5.25609375 -44.234375 5.27734375 Z M-17.234375 10.27734375 C-18.65439379 13.73863955 -18.36380122 14.94730689 -16.984375 18.46484375 C-15.37626618 21.48132254 -15.37626618 21.48132254 -12.234375 23.27734375 C-6.41489163 23.85804902 -6.41489163 23.85804902 -1.296875 21.40234375 C1.14579129 18.88565726 1.69152302 17.94426156 2.078125 14.46484375 C1.69398142 10.54657925 0.47306183 9.06441108 -2.234375 6.27734375 C-8.43989812 3.17458219 -13.35075407 4.98149702 -17.234375 10.27734375 Z " fill="#EE6F53" transform="translate(423.234375,104.72265625)"/>
<path d="M0 0 C8.25 0 16.5 0 25 0 C25 5.62315028 25 5.62315028 22.4453125 8.2265625 C21.91292969 8.7834375 21.38054687 9.3403125 20.83203125 9.9140625 C19.98705078 10.76097656 19.98705078 10.76097656 19.125 11.625 C18.02182082 12.76145372 16.92019866 13.89942142 15.8203125 15.0390625 C15.32805176 15.53615723 14.83579102 16.03325195 14.32861328 16.54541016 C12.77685975 18.17050221 12.77685975 18.17050221 11 21 C17.93 21.495 17.93 21.495 25 22 C25 23.98 25 25.96 25 28 C16.42 28 7.84 28 -1 28 C-1 22.37688969 -1 22.37688969 1.80859375 19.51953125 C2.39060547 18.91302734 2.97261719 18.30652344 3.57226562 17.68164062 C4.18779297 17.06482422 4.80332031 16.44800781 5.4375 15.8125 C6.64622625 14.57065796 7.85333721 13.32724105 9.05859375 12.08203125 C9.59798584 11.53780518 10.13737793 10.9935791 10.69311523 10.43286133 C12.10659084 9.01375043 12.10659084 9.01375043 13 7 C8.71 6.67 4.42 6.34 0 6 C0 4.02 0 2.04 0 0 Z " fill="#EE6F53" transform="translate(317,105)"/>
<path d="M0 0 C1.98 0 3.96 0 6 0 C6.33 2.64 6.66 5.28 7 8 C7.66 7.67 8.32 7.34 9 7 C13.59698532 6.57691462 17.70653278 6.46105533 22 8.25 C25.54629168 11.35300522 25.93554983 13.18792785 26.3125 17.9375 C26.2074614 21.69788192 25.44051549 24.03651691 23 27 C19.90971487 28.93226979 17.55253547 29.24747796 13.9375 29.1875 C13.08027344 29.18105469 12.22304688 29.17460937 11.33984375 29.16796875 C9 29 9 29 6 28 C4.02 28 2.04 28 0 28 C0 18.76 0 9.52 0 0 Z M6 16 C6.32305764 18.98828314 6.65189121 20.61321245 8.6875 22.875 C11.92519796 24.45009631 13.62101188 24.15029383 17 23 C18.91744593 20.55690423 18.91744593 20.55690423 20 18 C18.44326748 14.62707954 17.67653131 13.25002244 14.125 11.9375 C10.16188321 12.01676234 8.79039853 13.29167202 6 16 Z " fill="#EE6F53" transform="translate(497,105)"/>
<path d="M0 0 C1.98 0 3.96 0 6 0 C6.33 2.64 6.66 5.28 7 8 C7.66 7.67 8.32 7.34 9 7 C13.59698532 6.57691462 17.70653278 6.46105533 22 8.25 C25.54629168 11.35300522 25.93554983 13.18792785 26.3125 17.9375 C26.2074614 21.69788192 25.44051549 24.03651691 23 27 C19.90971487 28.93226979 17.55253547 29.24747796 13.9375 29.1875 C13.08027344 29.18105469 12.22304688 29.17460937 11.33984375 29.16796875 C9 29 9 29 6 28 C4.02 28 2.04 28 0 28 C0 18.76 0 9.52 0 0 Z M6 16 C6.32305764 18.98828314 6.65189121 20.61321245 8.6875 22.875 C11.92519796 24.45009631 13.62101188 24.15029383 17 23 C18.91744593 20.55690423 18.91744593 20.55690423 20 18 C18.44326748 14.62707954 17.67653131 13.25002244 14.125 11.9375 C10.16188321 12.01676234 8.79039853 13.29167202 6 16 Z " fill="#EE6F53" transform="translate(255,105)"/>
<path d="M0 0 C7.92 0 15.84 0 24 0 C24 1.65 24 3.3 24 5 C18.06 5 12.12 5 6 5 C6 7.31 6 9.62 6 12 C11.61 12 17.22 12 23 12 C23 13.65 23 15.3 23 17 C17.39 17 11.78 17 6 17 C6 18.98 6 20.96 6 23 C11.94 23 17.88 23 24 23 C24 24.65 24 26.3 24 28 C16.08 28 8.16 28 0 28 C0 18.76 0 9.52 0 0 Z " fill="#EE6F53" transform="translate(345,105)"/>
<path d="M0 0 C2.68628 0.71259358 2.68628 0.71259358 8.06640625 0.484375 C8.06640625 7.084375 8.06640625 13.684375 8.06640625 20.484375 C5.75640625 20.484375 3.44640625 20.484375 1.06640625 20.484375 C0.40640625 20.814375 -0.25359375 21.144375 -0.93359375 21.484375 C-5.83946326 21.89517245 -10.40064409 22.11006874 -14.99609375 20.234375 C-17.66915042 17.82000124 -18.7654108 16.21987992 -19.1171875 12.58984375 C-19.23596772 8.8238121 -19.33095719 5.56669942 -16.93359375 2.484375 C-12.33098809 -1.54290496 -5.7402716 -1.53073909 0 0 Z M-12.93359375 9.484375 C-12.06447678 12.23657873 -11.48637765 14.0500448 -9.18359375 15.859375 C-6.05973258 16.72711421 -4.02904162 16.4064233 -0.93359375 15.484375 C1.19535249 13.86889299 1.19535249 13.86889299 2.06640625 11.484375 C1.1566234 7.66328704 0.39348958 6.70243055 -2.93359375 4.484375 C-7.96348602 3.5578159 -9.73341401 5.82702672 -12.93359375 9.484375 Z " fill="#EE6F53" transform="translate(484.93359375,112.515625)"/>
<path d="M0 0 C2.31 0 4.62 0 7 0 C8.65 4.29 10.3 8.58 12 13 C12.99 13 13.98 13 15 13 C16.65 8.71 18.3 4.42 20 0 C22.31 0 24.62 0 27 0 C24.46277869 9.61727698 20.66846291 18.77356452 17 28 C14.69 28 12.38 28 10 28 C10.66 25.36 11.32 22.72 12 20 C10.35 20 8.7 20 7 20 C6.20788071 18.10435574 5.41632424 16.20847629 4.625 14.3125 C4.18414062 13.25675781 3.74328125 12.20101562 3.2890625 11.11328125 C2.65097656 9.57220703 2.65097656 9.57220703 2 8 C1.61585938 7.10667969 1.23171875 6.21335937 0.8359375 5.29296875 C0 3 0 3 0 0 Z " fill="#EE6F53" transform="translate(280,113)"/>
<path d="M0 0 C3.1875 1.8125 3.1875 1.8125 5 4 C5 4.99 5 5.98 5 7 C2.69 7 0.38 7 -2 7 C-2 6.34 -2 5.68 -2 5 C-3.98 5.33 -5.96 5.66 -8 6 C-4.81848831 8.12100779 -2.50093369 8.67392072 1.16015625 9.4375 C3 10 3 10 5 12 C5.375 15.4375 5.375 15.4375 5 19 C2.76898712 21.2837555 1.32211152 21.94683166 -1.83984375 22.46875 C-11.2332424 22.56351316 -11.2332424 22.56351316 -14.25 19.625 C-16 17 -16 17 -16 15 C-11.45194365 14.82164485 -8.1205746 15.00214565 -4 17 C-3.34 16.34 -2.68 15.68 -2 15 C-2.77085937 14.80664062 -3.54171875 14.61328125 -4.3359375 14.4140625 C-5.33882812 14.15367188 -6.34171875 13.89328125 -7.375 13.625 C-8.37273438 13.36976562 -9.37046875 13.11453125 -10.3984375 12.8515625 C-13 12 -13 12 -15 10 C-15.375 6.5625 -15.375 6.5625 -15 3 C-10.76892671 -1.26052392 -5.62284703 -0.76523954 0 0 Z " fill="#EE6F53" transform="translate(539,112)"/>
<path d="M0 0 C1.98 0 3.96 0 6 0 C6 7.26 6 14.52 6 22 C11.61 22 17.22 22 23 22 C23 23.98 23 25.96 23 28 C15.41 28 7.82 28 0 28 C0 18.76 0 9.52 0 0 Z " fill="#EE6F53" transform="translate(442,105)"/>
</svg>
