<?xml version="1.0" encoding="UTF-8"?>
<svg version="1.1" xmlns="http://www.w3.org/2000/svg" width="231" height="160">
<path d="M0 0 C1.15030701 -0.01358047 2.30061401 -0.02716095 3.48577881 -0.04115295 C7.28323922 -0.07841226 11.07957036 -0.07848553 14.87719727 -0.07495117 C17.51986634 -0.08593962 20.16253126 -0.09797329 22.80519104 -0.11100769 C28.34239197 -0.13380113 33.87927748 -0.13351369 39.41650391 -0.12207031 C45.80637199 -0.10938851 52.19472979 -0.14457475 58.58431 -0.20295411 C64.74501442 -0.25717811 70.90501036 -0.26677009 77.06593513 -0.25913048 C79.68102205 -0.26133661 82.29613036 -0.27623355 84.91106987 -0.30408669 C88.56952054 -0.33858996 92.22439046 -0.32218278 95.8828125 -0.29296875 C96.96095718 -0.31387573 98.03910187 -0.33478271 99.1499176 -0.35632324 C106.35572243 -0.225304 106.35572243 -0.225304 109.67845345 2.43166542 C111.44980136 4.44180775 112.98132093 6.49455504 114.50610352 8.69458008 C115.43511618 9.75314085 116.38206611 10.79634844 117.34985352 11.81958008 C121.84223223 16.6819194 126.29521487 21.56663164 130.63110352 26.56958008 C133.05161157 29.31282254 135.52849272 32.00306583 138.00610352 34.69458008 C144.7425359 42.02972984 144.7425359 42.02972984 147.63110352 45.25708008 C148.16993164 45.85649414 148.70875977 46.4559082 149.26391602 47.07348633 C150.50610352 48.69458008 150.50610352 48.69458008 151.50610352 51.69458008 C97.05610352 52.02458008 42.60610352 52.35458008 -13.49389648 52.69458008 C-8.54389648 57.97458008 -3.59389648 63.25458008 1.50610352 68.69458008 C6.97361514 74.60841918 12.38697327 80.48239711 17.50610352 86.69458008 C16.51610352 87.18958008 16.51610352 87.18958008 15.50610352 87.69458008 C12.89613982 86.77836745 10.39443661 85.78989251 7.85375977 84.70629883 C7.06226532 84.3759967 6.27077087 84.04569458 5.45529175 83.7053833 C2.82326855 82.6049197 0.19601123 81.49351321 -2.43139648 80.38208008 C-4.25523264 79.61711998 -6.07937449 78.85288836 -7.90380859 78.08935547 C-11.75949212 76.47429021 -15.6132347 74.85470988 -19.46557617 73.23168945 C-25.5669806 70.66191855 -31.67434693 68.10653704 -37.78295898 65.55395508 C-48.02276212 61.27422075 -58.25933586 56.9868349 -68.49389648 52.69458008 C-68.49389648 48.69458008 -68.49389648 48.69458008 -65.81811523 45.99536133 C-64.61586985 44.9872276 -63.40286213 43.99183855 -62.18139648 43.00708008 C-61.54129639 42.47526123 -60.90119629 41.94344238 -60.24169922 41.39550781 C-58.33547913 39.81621765 -56.4170268 38.25320892 -54.49389648 36.69458008 C-53.55288086 35.92629883 -52.61186523 35.15801758 -51.64233398 34.36645508 C-49.89806731 32.94363936 -48.15192872 31.52311581 -46.40405273 30.10473633 C-42.88460234 27.18997003 -39.43818756 24.19743921 -35.99389648 21.19458008 C-30.72179195 16.59830101 -25.39731998 12.09355769 -19.95874023 7.69458008 C-17.39759763 5.70665722 -17.39759763 5.70665722 -15.05821228 3.11299133 C-10.59903406 -0.56987322 -5.53723698 -0.02772297 0 0 Z " fill="#f1f1f1" transform="translate(69.493896484375,-0.694580078125)"/>
<path d="M0 0 C3.34702887 0.59057779 6.31755229 1.4150548 9.45019531 2.72729492 C10.30538757 3.08291 11.16057983 3.43852509 12.04168701 3.80491638 C12.96121155 4.19284866 13.88073608 4.58078094 14.828125 4.98046875 C15.79840637 5.38560196 16.76868774 5.79073517 17.76837158 6.20814514 C20.93083449 7.53006168 24.09044597 8.85864767 27.25 10.1875 C29.41848521 11.095699 31.5871057 12.00357508 33.75585938 12.91113281 C51.19530432 20.21548712 68.61019518 27.57825298 86 35 C86 35.99 86 36.98 86 38 C83.82137034 40.1213766 81.64607094 42.06223707 79.3125 44 C78.63203613 44.57669434 77.95157227 45.15338867 77.25048828 45.74755859 C75.17314995 47.50582704 73.08675437 49.25292649 71 51 C69.85447712 51.97018453 68.70987456 52.94145727 67.56640625 53.9140625 C64.91424817 56.16861798 62.25491569 58.4144741 59.59277344 60.65722656 C57.43509047 62.47624194 55.28089906 64.29936497 53.12695312 66.12280273 C52.05040053 67.03409223 50.97358161 67.9450672 49.89648438 68.85571289 C47.05960939 71.25438893 44.22655574 73.65740935 41.3984375 76.06640625 C40.51381836 76.81857422 40.51381836 76.81857422 39.61132812 77.5859375 C38.48132318 78.54688659 37.35236044 79.50906304 36.22460938 80.47265625 C29.43590675 86.24004963 29.43590675 86.24004963 24.14413452 86.30780029 C23.14331848 86.32500122 22.14250244 86.34220215 21.11135864 86.35992432 C20.01419525 86.36844421 18.91703186 86.37696411 17.78662109 86.38574219 C16.63021118 86.40209717 15.47380127 86.41845215 14.28234863 86.43530273 C10.44606605 86.48502439 6.60993168 86.51804788 2.7734375 86.546875 C1.4635146 86.55752235 0.15359169 86.56816971 -1.19602585 86.57913971 C-6.70339747 86.62239447 -12.21075755 86.65986119 -17.718256 86.68238449 C-25.59684704 86.71482151 -33.47345878 86.78106465 -41.3513037 86.89518619 C-46.89795538 86.97277961 -52.44408003 87.01167243 -57.99125993 87.02222562 C-61.30073262 87.02951017 -64.60761786 87.05833573 -67.91661453 87.11843109 C-71.61601515 87.181776 -75.31045199 87.18180774 -79.01025391 87.16699219 C-80.09527191 87.19980286 -81.18028992 87.23261353 -82.29818726 87.26641846 C-87.0052483 87.1894719 -89.87800269 86.92461806 -93.58317184 83.87125397 C-95.87931466 81.33754444 -97.94227784 78.72895915 -100 76 C-101.48509251 74.32003631 -102.98333276 72.65151393 -104.5 71 C-113.5 61 -113.5 61 -115.74609375 58.50390625 C-117.25854015 56.82370149 -118.77156859 55.14402049 -120.28515625 53.46484375 C-122.52557582 50.9784776 -124.76280793 48.48927005 -127 46 C-127.7734375 45.1440625 -128.546875 44.288125 -129.34375 43.40625 C-130.0759375 42.5915625 -130.808125 41.776875 -131.5625 40.9375 C-132.55443359 39.83728516 -132.55443359 39.83728516 -133.56640625 38.71484375 C-135 37 -135 37 -135 36 C-80.22 35.67 -25.44 35.34 31 35 C27.535 31.535 27.535 31.535 24 28 C22.83171446 26.70925544 21.67720513 25.40555932 20.55078125 24.078125 C16.26029261 19.10552179 11.71812618 14.38087321 7.16601562 9.6484375 C6.52728516 8.97554687 5.88855469 8.30265625 5.23046875 7.609375 C4.65707764 7.01092773 4.08368652 6.41248047 3.49291992 5.79589844 C1.96366694 3.95629337 0.97836098 2.17519964 0 0 Z " fill="#f1f1f1" transform="translate(144,74)"/>
</svg>
